# xmcd CD database file
#
# Track frame offsets:
#	150
#	17362
#	35812
#	56385
#	72122
#	91620
#	113020
#	128620
#	146242
#	165250
#	183967
#	200217
#
# Disc length: 2913 seconds
#
# Revision: 21
# Processed by: cddbd v1.5.2PL0 Copyright (c) Steve Scherf et al.
# Submitted via: CDex 1.70beta3
#
DISCID=980b5f0c
DTITLE=稲葉浩志 - 志庵
DYEAR=2002
DGENRE=Rock
TTITLE0=O.NO.RE
TTITLE1=LOVE LETTER
TTITLE2=Touch
TTITLE3=TRASH
TTITLE4=Overture
TTITLE5=GO
TTITLE6=ファミレス午前３時
TTITLE7=あなたを呼ぶ声は風にさらわれて
TTITLE8=Here I am ! !
TTITLE9=炎
TTITLE10=Seno de Revolution
TTITLE11=とどきますように
EXTD=YEAR: 2002
EXTT0=
EXTT1=
EXTT2=
EXTT3=
EXTT4=
EXTT5=
EXTT6=
EXTT7=
EXTT8=
EXTT9=
EXTT10=
EXTT11=
PLAYORDER=
